<svg width="32" height="31" viewBox="0 0 32 31" fill="none" xmlns="http://www.w3.org/2000/svg">
<g clip-path="url(#clip0_4_128)">
<path fill-rule="evenodd" clip-rule="evenodd" d="M15.9523 0C7.1311 0 0 7.10417 0 15.893C0 22.9184 4.56914 28.8652 10.9078 30.97C11.7002 31.1282 11.9905 30.628 11.9905 30.2072C11.9905 29.8388 11.9644 28.5759 11.9644 27.26C7.52686 28.2074 6.60278 25.3654 6.60278 25.3654C5.88963 23.5235 4.83298 23.0501 4.83298 23.0501C3.38057 22.0765 4.93878 22.0765 4.93878 22.0765C6.54988 22.1818 7.39527 23.7079 7.39527 23.7079C8.82123 26.1285 11.119 25.4445 12.0434 25.0235C12.1753 23.9972 12.5982 23.2868 13.0472 22.8922C9.50792 22.5238 5.78416 21.1556 5.78416 15.0508C5.78416 13.3142 6.41763 11.8933 7.42139 10.7883C7.26302 10.3937 6.70825 8.76202 7.58008 6.57814C7.58008 6.57814 8.92702 6.15705 11.9641 8.20951C13.2644 7.86162 14.6053 7.68465 15.9523 7.68316C17.2993 7.68316 18.6723 7.86754 19.9402 8.20951C22.9776 6.15705 24.3246 6.57814 24.3246 6.57814C25.1964 8.76202 24.6413 10.3937 24.4829 10.7883C25.5131 11.8933 26.1205 13.3142 26.1205 15.0508C26.1205 21.1556 22.3967 22.4973 18.831 22.8922C19.4122 23.3921 19.9138 24.3392 19.9138 25.8391C19.9138 27.9704 19.8877 29.6809 19.8877 30.2069C19.8877 30.628 20.1783 31.1282 20.9705 30.9703C27.3091 28.8649 31.8782 22.9184 31.8782 15.893C31.9043 7.10417 24.7471 0 15.9523 0Z" fill="white"/>
</g>
<defs>
<clipPath id="clip0_4_128">
<rect width="32" height="31" fill="white"/>
</clipPath>
</defs>
</svg>
