<svg width="30" height="25" viewBox="0 0 30 25" fill="none" xmlns="http://www.w3.org/2000/svg">
<path d="M7.57257 14.6027L10.7564 23.4519C10.7564 23.4519 11.1545 24.2799 11.5808 24.2799C12.007 24.2799 18.3468 17.657 18.3468 17.657L25.3968 3.98328L7.68618 12.3185L7.57257 14.6027Z" fill="#C8DAEA"/>
<path d="M11.7941 16.8722L11.1829 23.3949C11.1829 23.3949 10.9271 25.3935 12.917 23.3949C14.9069 21.3963 16.8115 19.8551 16.8115 19.8551" fill="#A9C6D8"/>
<path d="M7.63001 14.9185L1.08068 12.7757C1.08068 12.7757 0.297968 12.4568 0.550002 11.7337C0.601885 11.5846 0.706545 11.4577 1.01963 11.2397C2.47079 10.224 27.8793 1.05339 27.8793 1.05339C27.8793 1.05339 28.5967 0.81064 29.0199 0.972102C29.1245 1.00464 29.2187 1.06451 29.2928 1.1456C29.3669 1.22668 29.4181 1.32606 29.4414 1.43358C29.4871 1.62349 29.5063 1.81887 29.4982 2.01408C29.4962 2.18296 29.4759 2.33948 29.4604 2.58493C29.3057 5.0922 24.6747 23.8048 24.6747 23.8048C24.6747 23.8048 24.3976 24.8997 23.4049 24.9372C23.1609 24.9452 22.9179 24.9037 22.6902 24.8152C22.4626 24.7268 22.255 24.5932 22.0799 24.4225C20.1318 22.7399 13.3986 18.196 11.9108 17.1967C11.8772 17.1737 11.849 17.1438 11.8279 17.109C11.8068 17.0741 11.7935 17.0351 11.7887 16.9946C11.7679 16.8893 11.8819 16.7588 11.8819 16.7588C11.8819 16.7588 23.6061 6.29407 23.9181 5.1955C23.9423 5.11039 23.851 5.0684 23.7285 5.10567C22.9498 5.39334 9.45083 13.9535 7.96099 14.8983C7.85374 14.9309 7.74039 14.9378 7.63001 14.9185Z" fill="white"/>
</svg>
